<?xml version="1.0" encoding="UTF-8"?> <!-- Generator: Adobe Illustrator 18.0.0, SVG Export Plug-In . SVG Version: 6.00 Build 0) --> <svg xmlns="http://www.w3.org/2000/svg" xmlns:xlink="http://www.w3.org/1999/xlink" id="Layer_1" x="0px" y="0px" viewBox="0 0 420 103.7" xml:space="preserve"> <path fill-rule="evenodd" clip-rule="evenodd" fill="#6E0E0F" d="M393.9,40.6v-19h8.4c1.7,0,3,0.2,3.9,0.5c0.9,0.3,1.6,0.9,2.1,1.8 c0.5,0.9,0.8,1.8,0.8,2.9c0,1.4-0.4,2.5-1.3,3.4c-0.9,0.9-2.2,1.5-4,1.8c0.7,0.3,1.2,0.6,1.5,0.9c0.7,0.7,1.4,1.5,2.1,2.5l3.3,5.2 h-3.1l-2.5-4c-0.7-1.1-1.3-2-1.8-2.6c-0.5-0.6-0.9-1-1.3-1.3c-0.4-0.2-0.8-0.4-1.1-0.5c-0.3-0.1-0.7-0.1-1.4-0.1h-2.9v8.4H393.9 L393.9,40.6z M400.7,13.3c-9.8,0-17.8,8-17.8,17.8s8,17.8,17.8,17.8c9.8,0,17.8-8,17.8-17.8S410.5,13.3,400.7,13.3L400.7,13.3z M400.7,15.2c-8.8,0-15.9,7.1-15.9,15.9S392,47,400.7,47c8.8,0,15.9-7.1,15.9-15.9S409.5,15.2,400.7,15.2L400.7,15.2z M396.4,30h5.4 c1.2,0,2-0.1,2.7-0.4c0.6-0.2,1.1-0.6,1.5-1.1c0.3-0.5,0.5-1.1,0.5-1.7c0-0.9-0.3-1.6-1-2.2c-0.7-0.6-1.7-0.9-3.1-0.9h-6V30 L396.4,30z M349.1,54.1c1.3-3.1,2.6-6.2,3.9-9.3c3.6-8.6,6.5-12.9,16.4-14.1l1.1-0.1l0.7,3.5l-0.4,0.5c-2.1,2.2-1.3,5.6,0.9,7.3 c2,1.6,4.3,3,6.6,4.2c1.1,0.6,2.2,1.3,3.2,2.1c1.1,0.9,2.1,1.8,3.1,2.9c1,1.1,1.9,2.4,2.5,3.8c0.7,1.5,1.1,3.1,1.2,4.8 c0.2,4.8-1.7,8.6-5.6,11.4c-4.5,3.2-10.3,4.1-15.7,4.1c-2,0-4-0.3-5.9-0.7c-1.9-0.5-3.8-1.1-5.5-2c-1.9-1-4.9-3.2-6.8-5.1 c-1,1.5-2.2,2.7-3.6,3.7c-4.5,3.2-10.3,4.1-15.7,4.1c-2,0-4-0.3-5.9-0.7c-1.9-0.5-3.8-1.1-5.5-2c-1.9-1-5-3.2-6.9-5.2 c-0.7,1.2-1.6,2.3-2.5,3.3c-1.3,1.4-2.7,2.4-4.4,3.3c-1.9,1-4.1,1.4-6.2,1.4c-2.1,0-4.3-0.2-6.4-0.7c-1.6-0.4-3.2-1.1-4.6-2 c-1.2-0.8-2.3-1.7-3.2-2.9c-0.4-0.5-0.7-1-1.1-1.5c-0.4,0.5-0.8,1-1.2,1.4c-0.9,1-2,2-3.1,2.8c-1.2,0.9-2.6,1.6-4,2.1 c-1.6,0.6-3.4,0.8-5.1,0.8c-2.3,0-4.5-0.4-6.6-1.3c-1.9-0.8-3.6-2-5.1-3.5c-1.5-1.5-2.7-3.2-3.7-5c-1-1.9-1.6-3.9-2.1-6 c-0.1-0.5-0.2-1.1-0.3-1.6c-0.5,1.1-1,2.1-1.6,3.1l-2.4,3.9l0,0c-5.4,8.2-15.9,11.4-25.3,10c-1.2-0.2-2.3-0.5-3.5-0.9 c-1.1-0.4-2.2-1.1-3.2-1.8c-0.2-0.2-0.4-0.3-0.6-0.5l-1.9,25.6h-17.6l3.7-58c0-0.2,0-0.8-0.1-1c-0.6-0.1-1.7,1.2-2,1.6 c-1.1,1.6-2.1,4.2-2.7,6.1c-1,2.9-2,5.9-2.9,8.9c-1.2,3.7-2.6,7.7-4.4,11.1l0,0c-0.9,1.6-2,3.3-3.3,4.7c-5.4,5.8-13.6,6-20.2,2.1 c-3.2-1.9-5-4.8-5.8-8.5c-0.2-0.9-0.3-1.8-0.3-2.6c-0.1-1.4,0-2.8,0.1-4.2l0.7-9.2c0.1-1.7,0.2-3.4,0.3-5.1c0-1.2,0-2.4-0.3-3.6 c-0.2-0.7-0.5-1.4-0.9-2c-0.4-0.6-1.5-0.7-2.2-0.7c-0.8,0-1.6,0.3-2.3,0.7c-0.9,0.6-1.6,1.4-2.2,2.3c-0.7,1.1-1.3,2.2-1.7,3.5 c-0.4,1.4-0.7,2.8-0.8,4.2l-2.4,26.7h-17.2l1.9-29.3c0-0.8,0-1.6,0-2.4c0-0.8-0.1-1.7-0.2-2.5c-0.2-0.9-0.5-1.9-1.1-2.7 c-0.5-0.6-1.2-0.8-1.9-0.8c-0.8,0-1.5,0.3-2.2,0.6c-0.9,0.5-1.7,1.2-2.4,2.1c-0.8,1-1.5,2.2-2,3.4c-0.6,1.5-0.9,3-0.9,4.6v0 l-2.4,26.8H100l2.4-35.3c0-0.7,0-1.5-0.1-2.1c-0.2-0.8-0.6-1.1-1.4-1.1c-0.5,0-1,0.1-1.4,0.3c-3.9,1.5-7.9,13.7-9.2,17.6 c-1.8,5.1-3.7,10.3-7.4,14.4l-0.2,0.2c-1.7,1.8-3.7,3.3-5.9,4.5c-3.5,1.9-7.4,2.6-11.3,2.6c-3,0-5.9-0.4-8.7-1.4 c-2.4-0.9-4.7-2.1-6.6-3.8c-1.8-1.6-3.4-3.4-4.6-5.6c-1.2-2.1-2-4.3-2.5-6.6c-0.7-3.2-0.7-6.4-0.1-9.6c0.6-3.3,1.8-6.3,3.8-8.9 c2-2.8,4.6-4.9,7.6-6.6c3.5-1.9,7.4-2.6,11.3-2.6c3,0,5.9,0.4,8.7,1.4c2.4,0.9,4.7,2.1,6.6,3.8c1.8,1.6,3.4,3.4,4.6,5.6 c0.8,1.4,1.5,2.9,2,4.5c2.1-6.2,4.8-12.5,11.7-14.6c1.3-0.4,2.7-0.6,4.1-0.6c6.3,0,11.1,2.4,13.8,7.6c0.2-0.3,0.4-0.6,0.6-0.9 c0.9-1.2,2-2.3,3.1-3.2c1.3-1.1,2.9-1.9,4.5-2.5c1.9-0.7,4-1,6.1-1c3,0,5.8,0.9,8.4,2.3c2.3,1.3,4.1,3.2,5.4,5.5 c1.3-2.1,3-4,5.1-5.4c2.6-1.7,5.6-2.4,8.7-2.4c1.7,0,3.4,0.2,5,0.5c1.8,0.4,3.6,1.1,5.2,2c1.7,1,3.2,2.4,4.3,4.1 c1.4,1.9,2.2,4.2,2.7,6.5c0.2,0.9,0.3,1.8,0.3,2.6c0,1.2,0,2.3-0.1,3.5l-1.1,11.8c-0.1,1.2-0.3,2.5-0.3,3.6c0,0.8,0.2,2.9,1.1,3.3 c1.3,0.5,3.8-1.8,4.6-2.7c3-3.3,4.9-9.7,6.2-14c1.4-4.6,3.2-11.4,6-15.2c1.9-2.6,4.7-4.8,7.9-5.6c3.4-0.9,6.7,0.1,9.5,2.1 c1.1,0.8,2.2,1.8,3,2.9c0.3,0.4,0.6,0.8,0.9,1.3c1.5-1.9,3.4-3.5,5.6-4.5c2.3-1,4.7-1.7,7.3-1.7c1.8,0,3.6,0.3,5.3,0.9 c2,0.6,3.8,1.6,5.4,2.9c1.9,1.5,3.4,3.3,4.6,5.4c1.5,2.5,2.4,5.3,3,8.1c0.5,2.6,0.9,5.3,0.8,8c1.1-2.3,2.1-4.8,3-7.1 c0.9-2.1,1.8-4.3,2.8-6.3c4.7-9.5,13.9-14.9,24.5-11.9c1.2,0.3,2.4,0.8,3.5,1.4c0.8,0.4,1.5,1,2.2,1.6l0.3-2.5h17.5l-2,34.5 c0,0.8-0.1,1.7,0.1,2.5c0.2,1.1,0.8,1.5,1.9,1.5c1.2,0,2.6-1.1,3.4-1.9c3.2-2.8,6.6-10.7,8.3-14.6c1.2-2.7,2.2-5.4,3.4-8.1 c3.6-8.6,6.5-12.9,16.4-14.1l1.1-0.1l0.7,3.5l-0.4,0.5c-2.1,2.2-1.3,5.6,0.9,7.3c2,1.6,4.3,3,6.6,4.2c1.1,0.6,2.2,1.3,3.2,2.1 c1.1,0.9,2.1,1.8,3.1,2.9C347.8,52,348.5,53,349.1,54.1L349.1,54.1z M52.7,1.3C24.4,1.3,1.5,24.2,1.5,52.5 c0,28.3,22.9,51.2,51.2,51.2c11.4,0,21.9-3.7,30.4-10l-1.6-2.2c-5.6,2.7-11.9,4.1-18.5,4.1c-23.8,0-43.1-19.3-43.1-43.1 c0-23.8,19.3-43.1,43.1-43.1c12.5,0,23.8,5.3,31.7,13.8l3.1,0c-2.7-5.3-4.6-16.7-2.7-23l-5.2,0.7c-2,10.5-19.5,2.8-27.5,1.3 C59.1,1.6,55.9,1.3,52.7,1.3L52.7,1.3z M356.5,50.5c-1.5,3.6-3,7.2-4.7,10.7c1.4,3,5,6.7,7.8,8c1,0.5,2,0.8,3.1,1 c1.4,0.3,3,0.4,4.4,0.4c1.6,0,3.3-0.3,4.7-1.1c1.2-0.6,1.5-1.7,1.4-3c-0.1-1.7-1-3.2-2.2-4.5c-1.7-1.8-3.8-3.2-5.9-4.5 c-1.2-0.7-2.4-1.5-3.5-2.3c-1.2-0.8-2.4-1.8-3.4-2.9C357.5,51.9,357,51.2,356.5,50.5L356.5,50.5z M318.9,50.5 c-1.5,3.6-3,7.2-4.7,10.7c1.4,3,5,6.7,7.8,8c1,0.5,2,0.8,3.1,1c1.4,0.3,3,0.4,4.4,0.4c1.6,0,3.3-0.3,4.7-1.1c1.2-0.6,1.5-1.7,1.4-3 c-0.1-1.7-1-3.2-2.2-4.5c-1.7-1.8-3.8-3.2-5.9-4.5c-1.2-0.7-2.4-1.5-3.6-2.3c-1.2-0.8-2.4-1.8-3.4-2.9 C320,51.9,319.4,51.2,318.9,50.5L318.9,50.5z M281.8,43.9c0-0.5,0-1,0-1.4c-0.1-0.6-0.2-1.3-0.3-1.8c-0.1-0.5-0.4-1-0.6-1.4 c-0.3-0.6-0.7-1.1-1.2-1.6c-0.4-0.5-1-0.9-1.5-1.2c-0.5-0.3-1.1-0.5-1.7-0.5c-2.3,0-3.7,1.8-4.6,3.7c-1.6,3.8-2.5,7.8-2.7,11.9 c-0.2,4,0,8,0.8,12c0.2,1,0.6,2.3,1.4,3c0.6,0.5,1.3,0.8,2.2,0.8c0.8,0,1.6-0.2,2.3-0.6c0.9-0.5,1.7-1.1,2.3-1.8 c0.7-0.8,1.3-1.7,1.7-2.7c0.5-1.1,0.7-2.3,0.8-3.4L281.8,43.9L281.8,43.9z M60.6,40.6c-0.3,1.7-0.5,3.4-0.7,5.1 c-0.2,2.2-0.3,4.4-0.3,6.6c0,2.3,0,4.7,0.2,7c0.1,2,0.3,4.1,0.8,6c0.3,1.4,0.8,3.1,1.6,4.3c0.7,1,1.9,1.2,3,1.2 c1.3,0,2.5-0.3,3.2-1.5c0.9-1.4,1.3-3.3,1.6-5c0.2-1.4,0.3-2.9,0.4-4.4c0.2-2.3,0.3-4.6,0.3-6.9c0.1-2.5,0-5-0.1-7.5 c-0.1-2.1-0.3-4.3-0.7-6.3c-0.3-1.3-0.7-2.8-1.6-3.8c-0.7-0.9-1.8-1.1-2.9-1.1c-1.3,0-2.7,0.3-3.4,1.5 C61.2,37.1,60.8,38.9,60.6,40.6L60.6,40.6L60.6,40.6L60.6,40.6z M216.7,44.6l-1,16.8c0,0.7-0.1,1.6,0.1,2.3c0.3,1.5,1,2.8,2.1,3.9 c0.9,0.9,2,1.5,3.3,1.5c1.3,0,2.4-0.7,3.3-1.5c1.4-1.3,2.3-3,2.9-4.8c0.9-2.4,1.3-5,1.5-7.6c0.2-3.2-0.2-6.5-0.8-9.7 c-0.4-2-1.1-3.9-2.1-5.6c-0.8-1.2-1.8-1.9-3.2-1.9c-0.7,0-1.3,0.2-1.8,0.6c-0.7,0.5-1.4,1.1-1.9,1.7c-0.6,0.7-1.1,1.5-1.5,2.3 C217.1,43.1,216.8,43.9,216.7,44.6z"></path> </svg> 